<svg xmlns="http://www.w3.org/2000/svg" viewBox="0 0 1600 900" preserveAspectRatio="xMidYMid slice"><title>星空 · 极光之夜</title><defs><linearGradient id="sky" x1="0" y1="0" x2="0" y2="1"><stop offset="0" stop-color="#03060f"/><stop offset="0.6" stop-color="#070d1f"/><stop offset="1" stop-color="#0b1428"/></linearGradient><filter id="bl" x="-40%" y="-40%" width="180%" height="180%"><feGaussianBlur stdDeviation="150"/></filter></defs><rect width="1600" height="900" fill="url(#sky)"/><circle cx="438" cy="392" r="1.6" fill="#fff" opacity="0.89"/><circle cx="511" cy="87" r="1.5" fill="#fff" opacity="0.47"/><circle cx="1278" cy="244" r="2.0" fill="#fff" opacity="0.78"/><circle cx="781" cy="334" r="0.8" fill="#fff" opacity="0.86"/><circle cx="1370" cy="253" r="1.3" fill="#fff" opacity="0.99"/><circle cx="114" cy="281" r="1.0" fill="#fff" opacity="0.39"/><circle cx="363" cy="219" r="1.5" fill="#fff" opacity="0.71"/><circle cx="891" cy="238" r="1.2" fill="#fff" opacity="0.55"/><circle cx="1315" cy="309" r="0.7" fill="#fff" opacity="0.89"/><circle cx="866" cy="133" r="2.2" fill="#fff" opacity="0.86"/><circle cx="317" cy="508" r="1.5" fill="#fff" opacity="0.85"/><circle cx="482" cy="441" r="0.8" fill="#fff" opacity="0.96"/><circle cx="1434" cy="260" r="0.9" fill="#fff" opacity="0.98"/><circle cx="878" cy="113" r="0.9" fill="#fff" opacity="0.91"/><circle cx="847" cy="76" r="1.3" fill="#fff" opacity="0.33"/><circle cx="57" cy="84" r="1.7" fill="#fff" opacity="0.47"/><circle cx="850" cy="499" r="1.0" fill="#fff" opacity="0.72"/><circle cx="53" cy="436" r="1.0" fill="#fff" opacity="0.40"/><circle cx="51" cy="351" r="1.7" fill="#fff" opacity="0.57"/><circle cx="1386" cy="512" r="1.7" fill="#fff" opacity="0.40"/><circle cx="120" cy="123" r="1.9" fill="#fff" opacity="0.81"/><circle cx="942" cy="479" r="1.8" fill="#fff" opacity="0.77"/><circle cx="630" cy="444" r="2.2" fill="#fff" opacity="0.79"/><circle cx="258" cy="492" r="1.8" fill="#fff" opacity="0.32"/><circle cx="1521" cy="217" r="0.9" fill="#fff" opacity="0.92"/><circle cx="705" cy="513" r="1.1" fill="#fff" opacity="0.38"/><circle cx="1244" cy="345" r="1.0" fill="#fff" opacity="0.67"/><circle cx="903" cy="39" r="2.2" fill="#fff" opacity="0.93"/><circle cx="951" cy="455" r="1.9" fill="#fff" opacity="0.84"/><circle cx="1464" cy="4" r="1.2" fill="#fff" opacity="0.92"/><circle cx="760" cy="330" r="1.6" fill="#fff" opacity="0.48"/><circle cx="1289" cy="384" r="1.4" fill="#fff" opacity="0.64"/><circle cx="1333" cy="324" r="1.9" fill="#fff" opacity="0.69"/><circle cx="1542" cy="483" r="1.1" fill="#fff" opacity="0.55"/><circle cx="1235" cy="27" r="0.8" fill="#fff" opacity="0.95"/><circle cx="809" cy="230" r="0.8" fill="#fff" opacity="0.55"/><circle cx="106" cy="395" r="1.4" fill="#fff" opacity="0.35"/><circle cx="1276" cy="400" r="1.7" fill="#fff" opacity="0.72"/><circle cx="608" cy="227" r="1.8" fill="#fff" opacity="0.45"/><circle cx="1233" cy="518" r="0.8" fill="#fff" opacity="0.44"/><circle cx="129" cy="439" r="1.0" fill="#fff" opacity="0.76"/><circle cx="880" cy="491" r="1.8" fill="#fff" opacity="0.78"/><circle cx="1388" cy="36" r="1.0" fill="#fff" opacity="0.78"/><circle cx="921" cy="425" r="2.0" fill="#fff" opacity="0.55"/><circle cx="1134" cy="414" r="1.2" fill="#fff" opacity="0.90"/><circle cx="44" cy="194" r="1.7" fill="#fff" opacity="0.60"/><circle cx="671" cy="108" r="1.3" fill="#fff" opacity="0.41"/><circle cx="1090" cy="230" r="0.9" fill="#fff" opacity="0.93"/><circle cx="1011" cy="320" r="1.7" fill="#fff" opacity="0.78"/><circle cx="117" cy="180" r="1.7" fill="#fff" opacity="0.95"/><circle cx="4" cy="75" r="1.6" fill="#fff" opacity="0.89"/><circle cx="601" cy="171" r="0.8" fill="#fff" opacity="0.76"/><circle cx="502" cy="387" r="0.8" fill="#fff" opacity="0.92"/><circle cx="1486" cy="145" r="1.7" fill="#fff" opacity="0.85"/><circle cx="1406" cy="18" r="1.2" fill="#fff" opacity="0.81"/><circle cx="402" cy="224" r="1.2" fill="#fff" opacity="0.80"/><circle cx="855" cy="374" r="1.1" fill="#fff" opacity="0.96"/><circle cx="978" cy="262" r="1.6" fill="#fff" opacity="0.85"/><circle cx="711" cy="493" r="1.0" fill="#fff" opacity="1.00"/><circle cx="449" cy="406" r="1.3" fill="#fff" opacity="0.47"/><circle cx="267" cy="56" r="1.1" fill="#fff" opacity="0.94"/><circle cx="1300" cy="221" r="1.7" fill="#fff" opacity="0.47"/><circle cx="148" cy="195" r="0.9" fill="#fff" opacity="0.40"/><circle cx="244" cy="14" r="1.7" fill="#fff" opacity="0.84"/><circle cx="1530" cy="492" r="1.1" fill="#fff" opacity="0.91"/><circle cx="799" cy="337" r="1.5" fill="#fff" opacity="0.47"/><circle cx="492" cy="324" r="0.9" fill="#fff" opacity="0.48"/><circle cx="1103" cy="412" r="2.2" fill="#fff" opacity="0.84"/><circle cx="1319" cy="477" r="0.7" fill="#fff" opacity="0.89"/><circle cx="1497" cy="368" r="1.1" fill="#fff" opacity="0.84"/><circle cx="388" cy="201" r="1.8" fill="#fff" opacity="0.70"/><circle cx="1273" cy="533" r="2.1" fill="#fff" opacity="0.41"/><circle cx="810" cy="450" r="0.9" fill="#fff" opacity="0.36"/><circle cx="1460" cy="205" r="0.9" fill="#fff" opacity="0.58"/><circle cx="257" cy="151" r="1.0" fill="#fff" opacity="0.46"/><circle cx="855" cy="530" r="1.1" fill="#fff" opacity="0.59"/><circle cx="1016" cy="277" r="1.3" fill="#fff" opacity="0.42"/><circle cx="830" cy="260" r="1.0" fill="#fff" opacity="0.41"/><circle cx="267" cy="108" r="1.4" fill="#fff" opacity="0.58"/><circle cx="1588" cy="289" r="1.9" fill="#fff" opacity="0.78"/><circle cx="130" cy="450" r="1.9" fill="#fff" opacity="0.31"/><circle cx="720" cy="68" r="1.0" fill="#fff" opacity="0.74"/><circle cx="230" cy="480" r="2.2" fill="#fff" opacity="0.89"/><circle cx="1381" cy="445" r="2.0" fill="#fff" opacity="0.66"/><circle cx="564" cy="420" r="1.1" fill="#fff" opacity="0.54"/><circle cx="928" cy="317" r="1.5" fill="#fff" opacity="0.67"/><circle cx="168" cy="270" r="2.2" fill="#fff" opacity="0.49"/><circle cx="98" cy="281" r="0.8" fill="#fff" opacity="0.86"/><circle cx="1141" cy="91" r="1.1" fill="#fff" opacity="0.87"/><circle cx="1305" cy="19" r="1.6" fill="#fff" opacity="0.76"/><circle cx="828" cy="165" r="1.2" fill="#fff" opacity="0.79"/><circle cx="700" cy="415" r="1.8" fill="#fff" opacity="0.81"/><circle cx="1244" cy="314" r="1.9" fill="#fff" opacity="0.66"/><circle cx="812" cy="297" r="2.1" fill="#fff" opacity="0.55"/><circle cx="360" cy="272" r="1.1" fill="#fff" opacity="0.37"/><circle cx="803" cy="457" r="2.1" fill="#fff" opacity="0.80"/><circle cx="506" cy="356" r="1.2" fill="#fff" opacity="0.41"/><circle cx="549" cy="135" r="0.9" fill="#fff" opacity="0.79"/><circle cx="666" cy="0" r="1.8" fill="#fff" opacity="0.86"/><circle cx="1249" cy="415" r="1.4" fill="#fff" opacity="0.40"/><circle cx="335" cy="272" r="1.9" fill="#fff" opacity="0.88"/><circle cx="1582" cy="398" r="2.2" fill="#fff" opacity="0.47"/><circle cx="1555" cy="401" r="1.9" fill="#fff" opacity="0.40"/><circle cx="1516" cy="122" r="2.2" fill="#fff" opacity="0.63"/><circle cx="1434" cy="113" r="1.8" fill="#fff" opacity="0.53"/><circle cx="1270" cy="297" r="1.3" fill="#fff" opacity="0.68"/><circle cx="808" cy="516" r="1.8" fill="#fff" opacity="0.49"/><circle cx="1481" cy="474" r="0.8" fill="#fff" opacity="0.81"/><circle cx="1549" cy="32" r="1.9" fill="#fff" opacity="0.86"/><circle cx="408" cy="239" r="1.5" fill="#fff" opacity="0.82"/><circle cx="248" cy="196" r="1.2" fill="#fff" opacity="0.34"/><circle cx="262" cy="245" r="1.6" fill="#fff" opacity="0.81"/><circle cx="781" cy="317" r="1.6" fill="#fff" opacity="0.74"/><circle cx="916" cy="192" r="1.4" fill="#fff" opacity="0.95"/><circle cx="488" cy="328" r="1.3" fill="#fff" opacity="0.43"/><circle cx="293" cy="9" r="1.9" fill="#fff" opacity="0.85"/><circle cx="611" cy="11" r="1.0" fill="#fff" opacity="0.39"/><circle cx="639" cy="446" r="1.5" fill="#fff" opacity="0.54"/><circle cx="1068" cy="467" r="1.9" fill="#fff" opacity="0.56"/><circle cx="148" cy="377" r="1.1" fill="#fff" opacity="0.63"/><circle cx="186" cy="252" r="1.4" fill="#fff" opacity="0.98"/><circle cx="1116" cy="484" r="1.0" fill="#fff" opacity="0.42"/><circle cx="1349" cy="391" r="1.4" fill="#fff" opacity="0.64"/><circle cx="707" cy="302" r="1.2" fill="#fff" opacity="0.70"/><circle cx="1508" cy="487" r="0.8" fill="#fff" opacity="0.73"/><circle cx="23" cy="493" r="2.3" fill="#fff" opacity="0.35"/><circle cx="520" cy="332" r="1.8" fill="#fff" opacity="0.50"/><circle cx="1000" cy="117" r="0.7" fill="#fff" opacity="0.88"/><circle cx="45" cy="153" r="1.8" fill="#fff" opacity="0.70"/><circle cx="922" cy="352" r="1.2" fill="#fff" opacity="0.41"/><circle cx="658" cy="472" r="1.6" fill="#fff" opacity="0.35"/><circle cx="520" cy="393" r="1.0" fill="#fff" opacity="0.74"/><circle cx="1587" cy="163" r="1.3" fill="#fff" opacity="0.75"/><circle cx="1104" cy="226" r="1.4" fill="#fff" opacity="0.51"/><circle cx="494" cy="483" r="2.2" fill="#fff" opacity="0.70"/><circle cx="1475" cy="488" r="1.9" fill="#fff" opacity="0.91"/><circle cx="1281" cy="166" r="1.7" fill="#fff" opacity="0.38"/><circle cx="1058" cy="318" r="2.2" fill="#fff" opacity="0.87"/><circle cx="302" cy="234" r="1.2" fill="#fff" opacity="0.65"/><circle cx="1084" cy="416" r="1.7" fill="#fff" opacity="0.42"/><circle cx="316" cy="7" r="0.8" fill="#fff" opacity="0.75"/><circle cx="116" cy="121" r="1.2" fill="#fff" opacity="0.71"/><circle cx="1047" cy="487" r="0.8" fill="#fff" opacity="0.98"/><circle cx="1287" cy="112" r="2.3" fill="#fff" opacity="0.72"/><circle cx="1383" cy="281" r="0.8" fill="#fff" opacity="0.77"/><circle cx="1589" cy="241" r="1.6" fill="#fff" opacity="0.83"/><circle cx="332" cy="51" r="1.9" fill="#fff" opacity="0.62"/><circle cx="474" cy="509" r="2.0" fill="#fff" opacity="0.46"/><circle cx="973" cy="459" r="1.0" fill="#fff" opacity="0.36"/><circle cx="1358" cy="296" r="1.2" fill="#fff" opacity="0.75"/><circle cx="1114" cy="145" r="1.3" fill="#fff" opacity="0.97"/><circle cx="302" cy="200" r="1.0" fill="#fff" opacity="0.70"/><circle cx="804" cy="204" r="1.9" fill="#fff" opacity="0.45"/><circle cx="969" cy="88" r="1.6" fill="#fff" opacity="0.37"/><circle cx="373" cy="200" r="1.7" fill="#fff" opacity="0.36"/><circle cx="378" cy="39" r="0.9" fill="#fff" opacity="0.76"/><circle cx="546" cy="486" r="1.6" fill="#fff" opacity="0.42"/><circle cx="1166" cy="57" r="0.9" fill="#fff" opacity="0.51"/><circle cx="27" cy="0" r="1.5" fill="#fff" opacity="0.46"/><circle cx="1304" cy="79" r="0.9" fill="#fff" opacity="0.39"/><circle cx="502" cy="488" r="1.8" fill="#fff" opacity="0.53"/><circle cx="1043" cy="356" r="0.8" fill="#fff" opacity="0.97"/><circle cx="1575" cy="74" r="1.9" fill="#fff" opacity="0.38"/><circle cx="1177" cy="535" r="1.9" fill="#fff" opacity="0.73"/><circle cx="1284" cy="31" r="1.9" fill="#fff" opacity="0.97"/><circle cx="673" cy="192" r="0.7" fill="#fff" opacity="0.78"/><circle cx="98" cy="321" r="0.7" fill="#fff" opacity="0.50"/><circle cx="854" cy="517" r="1.5" fill="#fff" opacity="0.89"/><circle cx="1134" cy="183" r="1.8" fill="#fff" opacity="0.72"/><circle cx="1494" cy="529" r="2.0" fill="#fff" opacity="0.30"/><circle cx="1059" cy="528" r="2.1" fill="#fff" opacity="0.48"/><circle cx="1272" cy="393" r="2.0" fill="#fff" opacity="0.78"/><circle cx="1174" cy="139" r="1.2" fill="#fff" opacity="0.43"/><circle cx="1056" cy="48" r="1.3" fill="#fff" opacity="0.77"/><circle cx="748" cy="190" r="0.9" fill="#fff" opacity="0.56"/><circle cx="429" cy="57" r="1.0" fill="#fff" opacity="0.98"/><circle cx="1479" cy="333" r="1.3" fill="#fff" opacity="0.40"/><circle cx="283" cy="141" r="0.9" fill="#fff" opacity="0.44"/><circle cx="225" cy="503" r="2.0" fill="#fff" opacity="0.58"/><circle cx="995" cy="20" r="1.0" fill="#fff" opacity="0.75"/><circle cx="893" cy="441" r="1.0" fill="#fff" opacity="0.55"/><circle cx="144" cy="393" r="2.2" fill="#fff" opacity="0.46"/><circle cx="1004" cy="383" r="0.9" fill="#fff" opacity="0.63"/><circle cx="343" cy="455" r="2.1" fill="#fff" opacity="0.69"/><circle cx="128" cy="149" r="1.0" fill="#fff" opacity="0.89"/><circle cx="767" cy="434" r="1.2" fill="#fff" opacity="0.67"/><circle cx="685" cy="136" r="2.0" fill="#fff" opacity="0.54"/><circle cx="397" cy="149" r="1.6" fill="#fff" opacity="0.91"/><circle cx="404" cy="324" r="0.9" fill="#fff" opacity="0.31"/><circle cx="276" cy="247" r="1.0" fill="#fff" opacity="0.77"/><circle cx="696" cy="89" r="0.7" fill="#fff" opacity="0.52"/><circle cx="998" cy="99" r="0.8" fill="#fff" opacity="0.78"/><circle cx="1124" cy="55" r="1.4" fill="#fff" opacity="0.74"/><circle cx="1555" cy="418" r="1.3" fill="#fff" opacity="0.78"/><circle cx="1291" cy="216" r="0.9" fill="#fff" opacity="0.48"/><circle cx="1524" cy="265" r="1.5" fill="#fff" opacity="0.85"/><circle cx="1291" cy="474" r="1.1" fill="#fff" opacity="0.61"/><circle cx="1555" cy="130" r="1.4" fill="#fff" opacity="0.32"/><circle cx="357" cy="442" r="1.3" fill="#fff" opacity="0.52"/><circle cx="1342" cy="536" r="1.4" fill="#fff" opacity="0.52"/><circle cx="365" cy="402" r="1.8" fill="#fff" opacity="0.40"/><circle cx="1511" cy="279" r="1.1" fill="#fff" opacity="0.77"/><circle cx="1019" cy="376" r="1.1" fill="#fff" opacity="0.61"/><circle cx="887" cy="224" r="1.2" fill="#fff" opacity="0.32"/><circle cx="1424" cy="317" r="1.4" fill="#fff" opacity="0.85"/><circle cx="773" cy="405" r="1.9" fill="#fff" opacity="0.56"/><circle cx="1026" cy="330" r="0.9" fill="#fff" opacity="0.56"/><circle cx="1502" cy="272" r="1.7" fill="#fff" opacity="0.87"/><circle cx="1279" cy="70" r="1.2" fill="#fff" opacity="0.52"/><circle cx="1511" cy="391" r="2.0" fill="#fff" opacity="0.33"/><circle cx="479" cy="349" r="1.4" fill="#fff" opacity="0.47"/><circle cx="1543" cy="219" r="1.4" fill="#fff" opacity="0.66"/><circle cx="351" cy="108" r="1.6" fill="#fff" opacity="0.59"/><circle cx="1010" cy="27" r="1.9" fill="#fff" opacity="0.47"/><circle cx="1543" cy="352" r="2.3" fill="#fff" opacity="0.55"/><circle cx="781" cy="386" r="1.6" fill="#fff" opacity="0.39"/><circle cx="1512" cy="178" r="1.4" fill="#fff" opacity="0.62"/><circle cx="84" cy="416" r="1.9" fill="#fff" opacity="0.93"/><circle cx="433" cy="114" r="1.5" fill="#fff" opacity="0.89"/><circle cx="23" cy="364" r="1.4" fill="#fff" opacity="0.94"/><circle cx="420" cy="300" r="320" fill="#3ef2c6" opacity="0.5" filter="url(#bl)"/><circle cx="900" cy="240" r="300" fill="#4f8cff" opacity="0.45" filter="url(#bl)"/><circle cx="1300" cy="330" r="280" fill="#a56bff" opacity="0.4" filter="url(#bl)"/><g fill="#0a1526"><path d="M0,900 L0,740 L40,727 L80,728 L120,723 L160,707 L200,734 L240,700 L280,728 L320,704 L360,716 L400,717 L440,706 L480,688 L520,688 L560,679 L600,695 L640,664 L680,662 L720,687 L760,671 L800,668 L840,670 L880,656 L920,645 L960,650 L1000,639 L1040,641 L1080,620 L1120,644 L1160,635 L1200,613 L1240,618 L1280,632 L1320,602 L1360,596 L1400,609 L1440,621 L1480,596 L1520,616 L1560,592 L1600,592 L1600,900 Z"/></g><g fill="#040a14"><path d="M0,900 L0,749 L40,756 L80,740 L120,737 L160,737 L200,739 L240,747 L280,746 L320,735 L360,738 L400,728 L440,732 L480,735 L520,738 L560,737 L600,737 L640,729 L680,751 L720,749 L760,745 L800,746 L840,738 L880,744 L920,742 L960,754 L1000,747 L1040,755 L1080,758 L1120,743 L1160,765 L1200,759 L1240,764 L1280,748 L1320,755 L1360,774 L1400,768 L1440,765 L1480,770 L1520,776 L1560,767 L1600,781 L1600,900 Z"/></g></svg>